<svg width="32" height="32" viewBox="0 0 32 32" fill="none" xmlns="http://www.w3.org/2000/svg">
<path d="M6.66657 17.3333C6.66657 19.5312 7.55287 21.522 8.98756 22.9679C9.12593 23.1074 9.19511 23.1771 9.23595 23.2442C9.27491 23.3081 9.2976 23.3632 9.315 23.4361C9.33324 23.5124 9.33324 23.5993 9.33324 23.7731V26.9333C9.33324 27.3067 9.33324 27.4934 9.4059 27.636C9.46982 27.7614 9.5718 27.8634 9.69724 27.9273C9.83985 28 10.0265 28 10.3999 28H12.9332C13.3066 28 13.4933 28 13.6359 27.9273C13.7613 27.8634 13.8633 27.7614 13.9272 27.636C13.9999 27.4934 13.9999 27.3067 13.9999 26.9333V26.4C13.9999 26.0266 13.9999 25.8399 14.0726 25.6973C14.1365 25.5719 14.2385 25.4699 14.3639 25.406C14.5065 25.3333 14.6932 25.3333 15.0666 25.3333H16.9332C17.3066 25.3333 17.4933 25.3333 17.6359 25.406C17.7613 25.4699 17.8633 25.5719 17.9272 25.6973C17.9999 25.8399 17.9999 26.0266 17.9999 26.4V26.9333C17.9999 27.3067 17.9999 27.4934 18.0726 27.636C18.1365 27.7614 18.2385 27.8634 18.3639 27.9273C18.5065 28 18.6932 28 19.0666 28H21.6C21.9734 28 22.16 28 22.3027 27.9273C22.4281 27.8634 22.5301 27.7614 22.594 27.636C22.6667 27.4934 22.6667 27.3067 22.6667 26.9333V25.6324C22.6667 25.363 22.6667 25.2283 22.705 25.1202C22.7418 25.0165 22.7881 24.944 22.8666 24.867C22.9485 24.7867 23.0873 24.7222 23.3649 24.5934C24.6745 23.9854 25.7921 23.0334 26.6015 21.8536C26.7438 21.6461 26.815 21.5423 26.891 21.4811C26.9637 21.4225 27.0289 21.3881 27.1183 21.3613C27.2119 21.3333 27.3229 21.3333 27.545 21.3333H28.2667C28.64 21.3333 28.8267 21.3333 28.9693 21.2607C29.0948 21.1968 29.1968 21.0948 29.2607 20.9693C29.3333 20.8267 29.3333 20.64 29.3333 20.2667V15.7143C29.3333 15.3589 29.3333 15.1812 29.2673 15.044C29.2018 14.908 29.092 14.7982 28.956 14.7327C28.8188 14.6667 28.6411 14.6667 28.2857 14.6667C28.0284 14.6667 27.8997 14.6667 27.7961 14.6317C27.6844 14.5941 27.606 14.544 27.525 14.4584C27.4498 14.379 27.3884 14.2462 27.2657 13.9806C26.8717 13.1283 26.3322 12.357 25.679 11.6987C25.5406 11.5593 25.4715 11.4896 25.4306 11.4225C25.3917 11.3585 25.369 11.3034 25.3516 11.2306C25.3333 11.1542 25.3333 11.0673 25.3333 10.8936V9.4141C25.3333 8.93404 25.3333 8.69401 25.2334 8.53267C25.1458 8.39134 25.0086 8.28784 24.8486 8.24246C24.666 8.19066 24.4352 8.2566 23.9736 8.38848L20.8102 9.29229C20.7565 9.30765 20.7296 9.31533 20.7023 9.32072C20.678 9.32551 20.6535 9.32895 20.6288 9.33101C20.601 9.33333 20.5731 9.33333 20.5172 9.33333H19.9454M6.66657 17.3333C6.66657 14.2612 8.39819 11.5936 10.9386 10.2532M6.66657 17.3333H5.33333C3.86057 17.3333 2.66666 16.1394 2.66666 14.6667C2.66666 13.6796 3.20293 12.8178 4 12.3568M20 8.66667C20 11.244 17.9107 13.3333 15.3333 13.3333C12.756 13.3333 10.6667 11.244 10.6667 8.66667C10.6667 6.08934 12.756 4 15.3333 4C17.9107 4 20 6.08934 20 8.66667Z" stroke="#437D8E" stroke-width="2.5" stroke-linecap="round" stroke-linejoin="round"/>
</svg>
